<?xml version="1.0" standalone="no"?><!DOCTYPE svg PUBLIC "-//W3C//DTD SVG 1.1//EN" "http://www.w3.org/Graphics/SVG/1.1/DTD/svg11.dtd"><svg t="1706021390031" class="icon" viewBox="0 0 1024 1024" version="1.1" xmlns="http://www.w3.org/2000/svg" p-id="1115" width="128" height="128" xmlns:xlink="http://www.w3.org/1999/xlink"><path d="M1011.957664 401.411211a342.403763 342.403763 0 0 0-28.098785-87.106233 498.954136 498.954136 0 1 0 28.098785 87.106233zM95.134457 512.200706A421.481772 421.481772 0 0 1 120.423363 364.079969c22.077617 12.443748 51.782046 14.852215 51.782047 40.141121 0 80.282242 3.21129 171.001176 82.289298 172.205409A110.789494 110.789494 0 0 1 321.128969 642.257938c6.823991 16.859271 34.119953 0 64.225794 0 14.852215 0 0 23.683261 0 75.063897s116.409251 130.458644 116.409251 130.458643a602.116817 602.116817 0 0 0 4.014112 83.092121A417.066249 417.066249 0 0 1 95.134457 512.200706z m518.221874 404.622501c16.45786-66.634261 24.084673-103.564093 58.606037-132.064289a43.753822 43.753822 0 0 0-31.711486-80.282242c-30.105841 4.415523-11.239514-34.922775-37.732654-37.331243s-61.415915-52.183457-99.54998-69.444139c-20.471972-9.232458-40.141121-33.317131-71.451196-34.521365s-68.239906 22.077617-68.239906 4.014113a1058.521364 1058.521364 0 0 0-7.626813-115.205018c0-13.24657-9.232458-4.415523 28.500196-3.612701 20.471972 0 10.436691-40.141121 30.507252-40.141121s67.035672 17.260682 80.282243 9.633869 80.282242 177.022344 80.282242 30.507252c0-17.260682-9.633869-47.366523 0-63.824383a719.328891 719.328891 0 0 0 69.444139-126.04312 111.592317 111.592317 0 0 0-67.437083 0c-10.03528 3.21129 2.809878 17.662093-11.239514 20.873383-52.98628 11.640925-100.352803-13.647981-83.894943-37.331243s80.282242-10.436691 83.493532-59.408859c3.21129-27.697374 5.619757-60.211682 7.225402-84.296354A416.263426 416.263426 0 0 1 899.963936 361.27009c-141.698158 103.162681-105.571149 175.416699-59.007448 216.762054a397.397099 397.397099 0 0 1 63.422971 77.873775 418.270482 418.270482 0 0 1-291.023128 260.917288z" fill="#040000" p-id="1116"></path></svg>